<svg id="Layer_1" data-name="Layer 1" xmlns="http://www.w3.org/2000/svg" viewBox="0 0 122.86 69.65"><defs><style>.cls-1{font-size:11.43px;fill:#231f20;font-family:Montserrat;}.cls-2{fill:#f7b4d1;}.cls-2,.cls-3,.cls-4{stroke:#231f20;stroke-linecap:round;stroke-linejoin:round;stroke-width:1.22px;}.cls-3{fill:#d69dba;}.cls-4{fill:#966e84;}</style></defs><title>ACIREMA-logo2</title><text class="cls-1" transform="translate(0 66.78)">A</text><text class="cls-1" transform="translate(114.42 66.78)">A</text><text class="cls-1" transform="translate(19.02 47.76)">C</text><text class="cls-1" transform="translate(40.54 28.74)">I</text><text class="cls-1" transform="translate(57.15 9.72)">R</text><text class="cls-1" transform="translate(76.65 28.74)">E</text><text class="cls-1" transform="translate(94.23 47.76)">M</text><polyline class="cls-2" points="60 67.94 82.13 67.94 65.14 32.4 60.68 32.4 59.22 32.4 54.76 32.4 37.77 67.94 59.9 67.94"/><polygon class="cls-3" points="57.38 67.94 59.9 67.94 60 67.94 79.5 67.94 79.61 67.94 82.13 67.94 69.75 42.05 57.38 67.94"/><polygon class="cls-4" points="67.8 67.94 69.26 67.94 69.32 67.94 80.61 67.94 80.67 67.94 82.13 67.94 74.96 52.95 67.8 67.94"/><polygon class="cls-4" points="60.6 39.88 60.68 41.72 62.23 42.69 60.51 43.33 60.07 45.11 58.93 43.67 57.1 43.8 58.11 42.27 57.42 40.57 59.19 41.06 60.6 39.88"/><polygon class="cls-4" points="57.8 46.23 57.88 48.06 59.43 49.04 57.71 49.68 57.27 51.46 56.13 50.02 54.3 50.15 55.31 48.62 54.62 46.92 56.39 47.41 57.8 46.23"/><polygon class="cls-4" points="55 52.58 55.08 54.41 56.63 55.39 54.91 56.03 54.47 57.81 53.33 56.37 51.5 56.5 52.51 54.97 51.83 53.27 53.59 53.76 55 52.58"/><polygon class="cls-4" points="52.2 58.93 52.28 60.76 53.83 61.74 52.11 62.38 51.67 64.16 50.53 62.72 48.7 62.85 49.71 61.32 49.02 59.62 50.79 60.11 52.2 58.93"/></svg>