<svg id="Layer_1" data-name="Layer 1" xmlns="http://www.w3.org/2000/svg" viewBox="0 0 134.49 79.3"><defs><style>.cls-1{font-size:11.43px;fill:#231f20;font-family:Montserrat;}.cls-2{fill:none;stroke-miterlimit:10;stroke-width:1.05px;}.cls-2,.cls-3,.cls-4,.cls-5{stroke:#231f20;}.cls-3{fill:#f7b4d1;}.cls-3,.cls-4,.cls-5{stroke-linecap:round;stroke-linejoin:round;stroke-width:1.22px;}.cls-4{fill:#d69dba;}.cls-5{fill:#966e84;}</style></defs><title>ACIREMA-logo3</title><text class="cls-1" transform="translate(5.82 70.52)">A</text><rect class="cls-2" x="0.53" y="57.59" width="19.02" height="19.02"/><text class="cls-1" transform="translate(120.24 70.52)">A</text><rect class="cls-2" x="114.95" y="57.59" width="19.02" height="19.02"/><text class="cls-1" transform="translate(24.84 51.5)">C</text><rect class="cls-2" x="19.55" y="38.57" width="19.02" height="19.02"/><text class="cls-1" transform="translate(46.35 32.48)">I</text><rect class="cls-2" x="38.57" y="19.55" width="19.02" height="19.02"/><text class="cls-1" transform="translate(62.97 13.46)">R</text><rect class="cls-2" x="57.59" y="0.53" width="19.02" height="19.02"/><text class="cls-1" transform="translate(82.47 32.48)">E</text><rect class="cls-2" x="76.71" y="19.55" width="19.02" height="19.02"/><text class="cls-1" transform="translate(100.05 51.5)">M</text><rect class="cls-2" x="95.83" y="38.57" width="19.02" height="19.02"/><polyline class="cls-3" points="67.25 78.69 89.37 78.69 72.39 43.15 67.93 43.15 66.46 43.15 62.01 43.15 45.02 78.69 67.15 78.69"/><polygon class="cls-4" points="64.63 78.69 67.15 78.69 67.25 78.69 86.75 78.69 86.85 78.69 89.37 78.69 77 52.8 64.63 78.69"/><polygon class="cls-5" points="75.05 78.69 76.51 78.69 76.57 78.69 87.86 78.69 87.92 78.69 89.37 78.69 82.21 63.7 75.05 78.69"/><polygon class="cls-5" points="67.84 50.63 67.92 52.46 69.48 53.44 67.76 54.08 67.31 55.86 66.17 54.42 64.34 54.55 65.36 53.02 64.67 51.32 66.44 51.81 67.84 50.63"/><polygon class="cls-5" points="65.05 56.98 65.13 58.81 66.68 59.78 64.96 60.43 64.52 62.21 63.37 60.77 61.54 60.9 62.56 59.37 61.87 57.66 63.64 58.16 65.05 56.98"/><polygon class="cls-5" points="62.25 63.33 62.33 65.16 63.88 66.13 62.16 66.78 61.72 68.56 60.58 67.12 58.74 67.25 59.76 65.72 59.07 64.01 60.84 64.5 62.25 63.33"/><polygon class="cls-5" points="59.45 69.68 59.53 71.51 61.08 72.48 59.36 73.13 58.92 74.9 57.77 73.47 55.95 73.59 56.96 72.06 56.27 70.36 58.04 70.85 59.45 69.68"/></svg>